# xmcd
#
# Track frame offsets: 
#        150
#        23250
#        40235
#        57103
#        70710
#        93980
#        111380
#        123140
#        149075
#        161460
#        178043
#
# Disc length: 2686 seconds
#
# Revision: 8
# Processed by: cddbd v1.5.2PL0 Copyright (c) Steve Scherf et al.
# Submitted via: ExactAudioCopy v1.1
#
DISCID=8c0a7c0b
DTITLE=Shiina Ringo - Karuki Zamen Kuri no Hana
DYEAR=2003
DGENRE=JPop
TTITLE0=宗教
TTITLE1=ドツペルゲンガー
TTITLE2=迷彩
TTITLE3=おだいじに
TTITLE4=やっつけ仕事
TTITLE5=茎
TTITLE6=とりこし苦労
TTITLE7=おこのみで
TTITLE8=意識
TTITLE9=ポータルガイスト
TTITLE10=葬列
EXTD=YEAR: 2003
EXTT0=
EXTT1=
EXTT2=
EXTT3=
EXTT4=
EXTT5=
EXTT6=
EXTT7=
EXTT8=
EXTT9=
EXTT10=
PLAYORDER=
